<svg width="44" height="44" viewBox="0 0 44 44" fill="none" xmlns="http://www.w3.org/2000/svg">
<rect width="44" height="44" rx="22" fill="#007CED"/>
<path d="M24.2981 32L20.3781 24.72H19.7901V32H14.3021V12.26H22.9541C24.5408 12.26 25.8848 12.54 26.9861 13.1C28.0875 13.6413 28.9181 14.3973 29.4781 15.368C30.0381 16.32 30.3181 17.3933 30.3181 18.588C30.3181 19.932 29.9448 21.1173 29.1981 22.144C28.4701 23.152 27.3968 23.8707 25.9781 24.3L30.4301 32H24.2981ZM19.7901 20.968H22.5061C23.2528 20.968 23.8128 20.7907 24.1861 20.436C24.5595 20.0813 24.7461 19.568 24.7461 18.896C24.7461 18.2613 24.5501 17.7667 24.1581 17.412C23.7848 17.0387 23.2341 16.852 22.5061 16.852H19.7901V20.968Z" fill="white"/>
</svg>
